Coordinates
version=1
nRows=24
nColumns=38
inDegrees=no

Units are S.I. units (second, meters, Newtons, ...)
If the header above contains a line with 'inDegrees', this indicates whether rotational values are in degrees (yes) or radians (no).

endheader
time	pelvis_tilt	pelvis_list	pelvis_rotation	pelvis_tx	pelvis_ty	pelvis_tz	hip_flexion_r	hip_adduction_r	hip_rotation_r	knee_angle_r	ankle_angle_r	subtalar_angle_r	mtp_angle_r	hip_flexion_l	hip_adduction_l	hip_rotation_l	knee_angle_l	ankle_angle_l	subtalar_angle_l	mtp_angle_l	lumbar_extension	lumbar_bending	lumbar_rotation	arm_flex_r	arm_add_r	arm_rot_r	elbow_flex_r	pro_sup_r	wrist_flex_r	wrist_dev_r	arm_flex_l	arm_add_l	arm_rot_l	elbow_flex_l	pro_sup_l	wrist_flex_l	wrist_dev_l
20	-2.67936	1.45985	-2.04145	0.711351	-0.638429	0.93269	-0.208298	-0.187169	-0.350754	0.671266	-0.0366899	0	0	0.134549	0.0435442	-0.287205	0.310226	-0.0334291	0	0	-0.299461	-0.104739	0.0478041	1.0864	-0.299729	0.613291	0.688206	0.0928326	0	0	0.964059	-0.14856	0.603251	0.882645	1.5708	0	0
20.01	-2.67672	1.46284	-2.04304	0.709777	-0.63466	0.932583	-0.180007	-0.194103	-0.33341	0.714517	-0.0558825	0	0	0.134768	0.0449839	-0.283832	0.312307	-0.0313109	0	0	-0.301141	-0.10717	0.0402147	1.08929	-0.297721	0.612131	0.687899	0.0922964	0	0	0.966756	-0.153761	0.6075	0.893461	1.5708	0	0
20.02	-2.67093	1.46448	-2.04756	0.70876	-0.630885	0.932419	-0.152891	-0.200336	-0.317023	0.758616	-0.072369	0	0	0.134513	0.0465648	-0.280263	0.315467	-0.0285516	0	0	-0.301051	-0.106797	0.036691	1.09496	-0.295585	0.616971	0.681174	0.0911989	0	0	0.972178	-0.15244	0.611389	0.889445	1.5708	0	0
20.03	-2.67011	1.46501	-2.04684	0.707772	-0.627159	0.9324	-0.127828	-0.20611	-0.302966	0.80017	-0.0870703	0	0	0.132901	0.0477216	-0.277666	0.318918	-0.0251503	0	0	-0.302025	-0.106315	0.0337051	1.10069	-0.292827	0.620109	0.672649	0.090635	0	0	0.977731	-0.150153	0.612765	0.883043	1.5708	0	0
20.04	-2.6729	1.46457	-2.04204	0.706793	-0.623483	0.932558	-0.105443	-0.211388	-0.291756	0.837238	-0.0965696	0	0	0.13024	0.0487518	-0.275629	0.322508	-0.021978	0	0	-0.304033	-0.105685	0.0307533	1.10696	-0.292477	0.629854	0.666525	0.0897532	0	0	0.983159	-0.147629	0.611796	0.875137	1.5708	0	0
20.05	-2.68816	1.46332	-2.02487	0.705927	-0.619791	0.932858	-0.0865372	-0.214914	-0.28317	0.868439	-0.0998415	0	0	0.126322	0.0487733	-0.273446	0.326387	-0.018906	0	0	-0.307404	-0.104074	0.0284308	1.11341	-0.292841	0.642655	0.660959	0.0871668	0	0	0.988568	-0.145174	0.612757	0.868474	1.5708	0	0
20.06	-2.70552	1.46692	-2.01065	0.704802	-0.617257	0.93319	-0.0642673	-0.220211	-0.282934	0.890994	-0.0995859	0	0	0.129249	0.0469095	-0.272388	0.331795	-0.0180075	0	0	-0.308477	-0.0989712	0.0313435	1.12312	-0.294649	0.658716	0.655666	0.0824265	0	0	0.993311	-0.140324	0.607908	0.860621	1.5708	0	0
20.07	-2.74603	1.45914	-1.96209	0.704242	-0.612581	0.934048	-0.0561982	-0.218604	-0.273908	0.917793	-0.0936862	0	0	0.115855	0.0462073	-0.267497	0.334431	-0.0137705	0	0	-0.317061	-0.0974878	0.024425	1.12588	-0.295212	0.67036	0.651198	0.0742213	0	0	0.998971	-0.139052	0.610623	0.852606	1.5708	0	0
20.08	-2.78103	1.45669	-1.92386	0.703369	-0.609184	0.934783	-0.0431607	-0.219334	-0.272169	0.937892	-0.0827211	0	0	0.110242	0.0442689	-0.26331	0.33826	-0.0118241	0	0	-0.322708	-0.0930519	0.0221844	1.13231	-0.297385	0.686476	0.64769	0.0575245	0	0	1.00482	-0.135414	0.610933	0.843631	1.5708	0	0
20.09	-2.83788	1.45548	-1.86579	0.701273	-0.605373	0.935501	-0.0334309	-0.235803	-0.27477	0.950714	-0.0587625	0	0	0.103606	0.0392301	-0.261233	0.340761	-0.00854081	0	0	-0.326917	-0.0835194	0.0213616	1.13753	-0.299746	0.698913	0.646166	0.041277	0	0	1.00886	-0.130225	0.614406	0.834854	1.5708	0	0
20.1	-2.87459	1.45333	-1.82724	0.700651	-0.602003	0.936336	-0.022424	-0.235878	-0.274542	0.961116	-0.044208	0	0	0.0971232	0.0363282	-0.258087	0.34242	-0.00685504	0	0	-0.331458	-0.0788118	0.0208417	1.14089	-0.301605	0.707172	0.645531	0.0331096	0	0	1.01402	-0.126525	0.617091	0.825819	1.5708	0	0
20.11	-2.91009	1.45184	-1.78992	0.700126	-0.598742	0.937156	-0.0116464	-0.235361	-0.275685	0.967345	-0.0308699	0	0	0.0912036	0.0331208	-0.256013	0.343092	-0.00527892	0	0	-0.335056	-0.0737731	0.0206018	1.14362	-0.304343	0.717134	0.646403	0.0231747	0	0	1.01911	-0.123075	0.620602	0.815723	1.5708	0	0
20.12	-2.94587	1.45005	-1.75257	0.699737	-0.595592	0.938006	-0.00217931	-0.234513	-0.278453	0.968896	-0.0175902	0	0	0.0847299	0.0297349	-0.254524	0.342789	-0.0035563	0	0	-0.3386	-0.0689583	0.021474	1.14539	-0.308842	0.728645	0.649358	0.00781239	0	0	1.02493	-0.119217	0.626419	0.803961	1.5708	0	0
20.13	-2.97327	1.44674	-1.72193	0.699562	-0.592565	0.938993	0.00447545	-0.23409	-0.284454	0.966475	-0.00363037	0	0	0.0774488	0.0269752	-0.252157	0.342827	-0.00285266	0	0	-0.343006	-0.0611102	0.0201968	1.15059	-0.308527	0.743741	0.646262	0	0	0	1.02754	-0.117219	0.624098	0.793411	1.5708	0	0
20.14	-3.00887	1.44211	-1.68317	0.699301	-0.589723	0.940029	0.00854394	-0.232256	-0.291655	0.959994	0.0103558	0	0	0.0685597	0.023161	-0.250181	0.342558	-0.00172225	0	0	-0.34991	-0.0598109	0.0220706	1.14726	-0.316116	0.740511	0.652095	0	0	0	1.03872	-0.10806	0.635214	0.776	1.5708	0	0
20.15	-3.04829	1.44085	-1.64074	0.698906	-0.586809	0.941027	0.0151128	-0.228498	-0.299058	0.948661	0.0223785	0	0	0.0633465	0.018095	-0.249197	0.342082	-0.00130926	0	0	-0.353499	-0.0529449	0.0213661	1.14757	-0.318047	0.742402	0.654123	0	0	0	1.04257	-0.104701	0.63698	0.768986	1.5708	0	0
20.16	-3.09018	1.44032	-1.59578	0.698511	-0.583954	0.942087	0.0212009	-0.223547	-0.307516	0.932343	0.0322013	0	0	0.0591174	0.0125034	-0.247832	0.34164	-0.00153015	0	0	-0.356025	-0.0451207	0.0206194	1.14753	-0.32028	0.744821	0.658062	0	0	0	1.04487	-0.10132	0.633875	0.762541	1.5708	0	0
20.17	-3.12179	1.43684	-1.55961	0.698306	-0.581303	0.943235	0.022757	-0.219124	-0.318276	0.912211	0.0412861	0	0	0.0520176	0.00794411	-0.244801	0.340811	-0.00197717	0	0	-0.36105	-0.0379854	0.020359	1.14818	-0.323864	0.747622	0.662486	0	0	0	1.04919	-0.0954751	0.632347	0.751679	1.5708	0	0
20.18	3.12889	1.43452	-1.52288	0.698105	-0.578657	0.944309	0.0248499	-0.213414	-0.328253	0.88814	0.0492693	0	0	0.0461016	0.0031181	-0.242078	0.339429	-0.00262674	0	0	-0.365032	-0.031399	0.0201998	1.14798	-0.327863	0.748388	0.668273	0	0	0	1.05321	-0.0897291	0.631296	0.742064	1.5708	0	0
20.19	3.08919	1.43741	-1.4807	0.697957	-0.575903	0.945179	0.0328806	-0.20596	-0.335212	0.861016	0.0559396	0	0	0.0457434	-0.00218133	-0.240828	0.337805	-0.0034689	0	0	-0.364868	-0.0209874	0.0148729	1.15251	-0.322922	0.754986	0.670278	0	0	0	1.04854	-0.0951782	0.620993	0.749801	1.5708	0	0
20.2	3.06589	1.43594	-1.45405	0.698008	-0.57339	0.946097	0.0357629	-0.199274	-0.342699	0.831839	0.063244	0	0	0.0412182	-0.0062159	-0.238957	0.336168	-0.00435911	0	0	-0.36793	-0.0160289	0.0149374	1.15253	-0.326324	0.757273	0.676942	0	0	0	1.05143	-0.0910255	0.619011	0.743154	1.5708	0	0
20.21	3.04765	1.43505	-1.4333	0.698358	-0.57094	0.946923	0.0388925	-0.1925	-0.348427	0.800621	0.070285	0	0	0.0368317	-0.00949843	-0.23728	0.333705	-0.00572468	0	0	-0.370193	-0.0121258	0.0158493	1.15148	-0.330089	0.758838	0.685275	0	0	0	1.05478	-0.0866932	0.618897	0.734605	1.5708	0	0
20.22	3.00348	1.44077	-1.38316	0.699259	-0.569418	0.947098	0.0504848	-0.180484	-0.352958	0.768946	0.076327	0	0	0.0410017	-0.0163782	-0.24078	0.328807	-0.00879813	0	0	-0.366761	-0.00608033	0.0138813	1.14959	-0.332412	0.756521	0.694696	0	0	0	1.05975	-0.0852744	0.620276	0.728292	1.5708	0	0
20.23	3.00912	1.44131	-1.38366	0.700817	-0.567542	0.947646	0.0574217	-0.160022	-0.347041	0.736516	0.0733475	0	0	0.0398232	-0.0174025	-0.238888	0.328664	-0.00975219	0	0	-0.368346	-0.0074777	0.0131309	1.14656	-0.336145	0.755606	0.704166	0	0	0	1.06428	-0.0842148	0.619063	0.723198	1.5708	0	0
